<?xml version="1.0" standalone="no"?>
<!DOCTYPE svg PUBLIC "-//W3C//DTD SVG 20010904//EN"
 "http://www.w3.org/TR/2001/REC-SVG-20010904/DTD/svg10.dtd">
<svg version="1.0" xmlns="http://www.w3.org/2000/svg"
 width="700.000000pt" height="700.000000pt" viewBox="0 0 700.000000 700.000000"
 preserveAspectRatio="xMidYMid meet">
<metadata>
Created by potrace 1.14, written by Peter Selinger 2001-2017
</metadata>
<g transform="translate(0.000000,700.000000) scale(0.100000,-0.100000)"
fill="#000000" stroke="none">
<path d="M709 6247 c-4 -7 -3 -1481 2 -1488 3 -5 548 -8 1339 -7 l1334 3 1
730 c0 402 -1 737 -3 747 -4 15 -102 16 -1338 16 -734 0 -1334 0 -1335 -1z"/>
<path d="M3623 6237 c-6 -9 -10 -1433 -4 -1479 1 -5 603 -8 1339 -8 l1337 0 0
747 0 748 -1332 2 c-1002 1 -1334 -2 -1340 -10z"/>
<path d="M1599 4218 c0 -44 0 -1405 0 -1441 l1 -27 892 2 892 3 1 735 c0 404
-1 741 -3 748 -3 9 -191 12 -893 12 l-889 0 -1 -32z"/>
<path d="M3618 4238 c-3 -11 -2 -1435 1 -1475 1 -10 186 -13 891 -13 l890 0 1
58 c0 72 0 1413 0 1430 -1 9 -186 12 -890 12 -702 0 -890 -3 -893 -12z"/>
<path d="M2790 1501 l0 -749 294 -1 c222 0 295 3 298 12 3 10 2 1435 -1 1475
-1 9 -67 12 -296 12 l-295 0 0 -749z"/>
<path d="M3618 2243 c-3 -7 -2 -1423 1 -1476 1 -16 21 -17 296 -16 l295 2 0
748 0 749 -294 0 c-162 0 -296 -3 -298 -7z"/>
</g>
</svg>
