<?xml version="1.0" encoding="UTF-8" standalone="no"?>
<!DOCTYPE svg PUBLIC "-//W3C//DTD SVG 1.1//EN" "http://www.w3.org/Graphics/SVG/1.1/DTD/svg11.dtd">
<svg width="100%" height="100%" viewBox="0 0 24 24" version="1.1" xmlns="http://www.w3.org/2000/svg" xmlns:xlink="http://www.w3.org/1999/xlink" xml:space="preserve" xmlns:serif="http://www.serif.com/" style="fill-rule:evenodd;clip-rule:evenodd;stroke-linejoin:round;stroke-miterlimit:2;">
    <g transform="matrix(0.798284,0,0,1.28457,2.42059,0.891179)">
        <g transform="matrix(1.27765,0,0,1.33333,-3.83296,-8.01875)">
            <path d="M10,18L12,18L12,15L10,15L10,18ZM3,7L3,10L12,10L12,7L3,7ZM6,14L12,14L12,11L6,11L6,14Z" style="fill:rgb(255,229,152);fill-rule:nonzero;"/>
        </g>
        <g transform="matrix(-1.27765,0,0,1.33333,27.833,-8.01875)">
            <path d="M10,18L12,18L12,15L10,15L10,18ZM3,7L3,10L12,10L12,7L3,7ZM6,14L12,14L12,11L6,11L6,14Z" style="fill:rgb(255,193,7);fill-rule:nonzero;"/>
        </g>
    </g>
</svg>
